<svg xmlns="http://www.w3.org/2000/svg" viewBox="0 0 48 48" fill="none">
  <!-- Flask body -->
  <path d="M18,18 L18,6 L30,6 L30,18 L40,40 C41,43 39,46 36,46 L12,46 C9,46 7,43 8,40 Z" fill="#334155" stroke="#38bdf8" stroke-width="2" stroke-linejoin="round"/>
  <!-- Flask neck -->
  <line x1="16" y1="6" x2="32" y2="6" stroke="#38bdf8" stroke-width="2.5" stroke-linecap="round"/>
  <!-- Liquid -->
  <path d="M14,34 L34,34 L38,42 C39,44 37,46 36,46 L12,46 C11,46 9,44 10,42 Z" fill="#38bdf8" opacity="0.3"/>
  <!-- Bubbles -->
  <circle cx="20" cy="38" r="2.5" fill="#38bdf8" opacity="0.6"/>
  <circle cx="28" cy="36" r="1.8" fill="#38bdf8" opacity="0.5"/>
  <circle cx="24" cy="32" r="1.5" fill="#38bdf8" opacity="0.4"/>
  <!-- Sparkle coming out -->
  <circle cx="24" cy="2" r="1.5" fill="#38bdf8" opacity="0.6"/>
  <circle cx="18" cy="0" r="1" fill="#38bdf8" opacity="0.4"/>
  <circle cx="30" cy="1" r="1" fill="#38bdf8" opacity="0.4"/>
</svg>
