<svg xmlns="http://www.w3.org/2000/svg" viewBox="0 0 800 400" fill="none">
  <!-- ===== LEFT: VS Code window ===== -->
  <rect x="0" y="0" width="390" height="400" rx="10" fill="#1e1e2e"/>
  <!-- Title bar -->
  <rect x="0" y="0" width="390" height="28" rx="10" fill="#181825"/>
  <rect x="0" y="10" width="390" height="18" fill="#181825"/>
  <circle cx="16" cy="14" r="4.5" fill="#f38ba8" opacity="0.9"/>
  <circle cx="30" cy="14" r="4.5" fill="#f9e2af" opacity="0.9"/>
  <circle cx="44" cy="14" r="4.5" fill="#a6e3a1" opacity="0.9"/>
  <text x="195" y="18" text-anchor="middle" fill="#a6adc8" font-family="system-ui, sans-serif" font-size="10">VS Code</text>

  <!-- Copilot chat area (full height) -->
  <rect x="8" y="36" width="374" height="28" fill="#11111b" rx="6"/>
  <text x="20" y="54" fill="#38bdf8" font-family="system-ui, sans-serif" font-size="11" font-weight="600">✦ Copilot Chat</text>

  <!-- User message -->
  <rect x="100" y="76" width="280" height="48" rx="8" fill="#313244"/>
  <text x="112" y="96" fill="#cdd6f4" font-family="system-ui, sans-serif" font-size="11.5">I want to make a quiz game about</text>
  <text x="112" y="112" fill="#cdd6f4" font-family="system-ui, sans-serif" font-size="11.5">animals. Show a question and 4 buttons.</text>

  <!-- Copilot response -->
  <rect x="16" y="136" width="310" height="70" rx="8" fill="#1e1e2e" stroke="#313244" stroke-width="1"/>
  <text x="28" y="155" fill="#38bdf8" font-family="system-ui, sans-serif" font-size="10" font-weight="600">✦ Copilot</text>
  <text x="28" y="172" fill="#a6adc8" font-family="system-ui, sans-serif" font-size="11">I've created your animal quiz! It shows</text>
  <text x="28" y="188" fill="#a6adc8" font-family="system-ui, sans-serif" font-size="11">a question with 4 answer buttons. Tap</text>
  <text x="28" y="200" fill="#a6adc8" font-family="system-ui, sans-serif" font-size="11">one to see if you're right. 🎉</text>

  <!-- User message 2 -->
  <rect x="120" y="218" width="260" height="36" rx="8" fill="#313244"/>
  <text x="132" y="240" fill="#cdd6f4" font-family="system-ui, sans-serif" font-size="11.5">Make it keep score and add a timer</text>

  <!-- Copilot response 2 -->
  <rect x="16" y="266" width="310" height="56" rx="8" fill="#1e1e2e" stroke="#313244" stroke-width="1"/>
  <text x="28" y="285" fill="#38bdf8" font-family="system-ui, sans-serif" font-size="10" font-weight="600">✦ Copilot</text>
  <text x="28" y="302" fill="#a6adc8" font-family="system-ui, sans-serif" font-size="11">Done! There's now a score counter at the</text>
  <text x="28" y="316" fill="#a6adc8" font-family="system-ui, sans-serif" font-size="11">top and a 30-second countdown timer.</text>

  <!-- Chat input -->
  <rect x="16" y="340" width="358" height="36" rx="8" fill="#313244"/>
  <text x="28" y="362" fill="#6c7086" font-family="system-ui, sans-serif" font-size="11">Ask Copilot anything...</text>
  <rect x="340" y="348" width="24" height="20" rx="4" fill="#38bdf8" opacity="0.7"/>
  <text x="352" y="362" text-anchor="middle" fill="#181825" font-family="system-ui, sans-serif" font-size="12" font-weight="700">↑</text>

  <!-- ===== Arrow between ===== -->
  <line x1="400" y1="200" x2="404" y2="200" stroke="#38bdf8" stroke-width="2" stroke-linecap="round"/>
  <polygon points="404,192 418,200 404,208" fill="#38bdf8"/>

  <!-- ===== RIGHT: Browser window ===== -->
  <rect x="420" y="0" width="380" height="400" rx="10" fill="#ffffff"/>
  <!-- Browser chrome -->
  <rect x="420" y="0" width="380" height="36" rx="10" fill="#f1f5f9"/>
  <rect x="420" y="10" width="380" height="26" fill="#f1f5f9"/>
  <circle cx="436" cy="18" r="4.5" fill="#ef4444" opacity="0.7"/>
  <circle cx="450" cy="18" r="4.5" fill="#eab308" opacity="0.7"/>
  <circle cx="464" cy="18" r="4.5" fill="#22c55e" opacity="0.7"/>
  <!-- URL bar -->
  <rect x="480" y="8" width="260" height="20" rx="4" fill="#e2e8f0"/>
  <text x="496" y="22" fill="#64748b" font-family="monospace" font-size="9">localhost:5500</text>

  <!-- Quiz page content -->
  <rect x="420" y="36" width="380" height="364" fill="#0f172a"/>
  
  <!-- Score and timer bar -->
  <rect x="438" y="50" width="100" height="24" rx="6" fill="#1e293b"/>
  <text x="450" y="66" fill="#a6e3a1" font-family="system-ui, sans-serif" font-size="11" font-weight="600">Score: 3</text>
  <rect x="682" y="50" width="100" height="24" rx="6" fill="#1e293b"/>
  <text x="700" y="66" fill="#f9e2af" font-family="system-ui, sans-serif" font-size="11" font-weight="600">⏱ 0:24</text>

  <!-- Question card -->
  <rect x="448" y="90" width="324" height="72" rx="12" fill="#1e293b"/>
  <text x="610" y="118" text-anchor="middle" fill="#f1f5f9" font-family="system-ui, sans-serif" font-size="13" font-weight="600">🐾 Question 4 of 10</text>
  <text x="610" y="142" text-anchor="middle" fill="#e2e8f0" font-family="system-ui, sans-serif" font-size="14">What is the fastest land animal?</text>

  <!-- Answer buttons -->
  <rect x="448" y="178" width="155" height="50" rx="10" fill="#334155" stroke="#475569" stroke-width="1.5"/>
  <text x="525" y="208" text-anchor="middle" fill="#e2e8f0" font-family="system-ui, sans-serif" font-size="13">🦁 Lion</text>

  <rect x="617" y="178" width="155" height="50" rx="10" fill="#334155" stroke="#475569" stroke-width="1.5"/>
  <text x="694" y="208" text-anchor="middle" fill="#e2e8f0" font-family="system-ui, sans-serif" font-size="13">🐆 Cheetah</text>

  <rect x="448" y="240" width="155" height="50" rx="10" fill="#334155" stroke="#475569" stroke-width="1.5"/>
  <text x="525" y="270" text-anchor="middle" fill="#e2e8f0" font-family="system-ui, sans-serif" font-size="13">🐎 Horse</text>

  <rect x="617" y="240" width="155" height="50" rx="10" fill="#334155" stroke="#475569" stroke-width="1.5"/>
  <text x="694" y="270" text-anchor="middle" fill="#e2e8f0" font-family="system-ui, sans-serif" font-size="13">🦅 Eagle</text>

  <!-- Progress dots -->
  <g transform="translate(560, 310)">
    <circle cx="0" cy="0" r="5" fill="#a6e3a1"/>
    <circle cx="16" cy="0" r="5" fill="#a6e3a1"/>
    <circle cx="32" cy="0" r="5" fill="#f38ba8"/>
    <circle cx="48" cy="0" r="5" fill="#38bdf8"/>
    <circle cx="64" cy="0" r="5" fill="#313244"/>
    <circle cx="80" cy="0" r="5" fill="#313244"/>
    <circle cx="96" cy="0" r="5" fill="#313244"/>
    <circle cx="112" cy="0" r="5" fill="#313244"/>
    <circle cx="128" cy="0" r="5" fill="#313244"/>
    <circle cx="144" cy="0" r="5" fill="#313244"/>
  </g>

  <!-- Label under illustration -->
  <text x="610" y="365" text-anchor="middle" fill="#94a3b8" font-family="system-ui, sans-serif" font-size="11">Result appears in the browser instantly</text>
</svg>
